<svg xmlns="http://www.w3.org/2000/svg" xmlns:xlink="http://www.w3.org/1999/xlink" width="132" height="44" viewBox="0 0 132 44">
    <defs>
        <path id="prefix__a" d="M0 0.376L132.001 0.376 132.001 36 0 36z"/>
        <path id="prefix__c" d="M0.021 0.046L101.043 0.046 101.043 23.359 0.021 23.359z"/>
    </defs>
    <g fill="none" fill-rule="evenodd">
        <g transform="translate(0 -1) translate(0 8.954)">
            <mask id="prefix__b" fill="#fff">
                <use xlink:href="#prefix__a"/>
            </mask>
            <path fill="#1B465E" d="M64.75 2.152c36.52-4.303 66.637-.5 67.238 8.304.7 8.905-28.317 19.512-64.737 23.814-36.52 4.203-66.638.5-67.239-8.404-.7-8.805 28.316-19.51 64.737-23.713l.001-.001z" mask="url(#prefix__b)"/>
        </g>
        <g transform="translate(0 -1) translate(12 .954)">
            <mask id="prefix__d" fill="#fff">
                <use xlink:href="#prefix__c"/>
            </mask>
            <path fill="#36B68A" d="M94.074 16.155c-.101.8-.4 1.4-.8 1.9-.302.5-.802.9-1.501 1.2-.701.302-1.401.502-2.001.502-.701 0-1.201-.1-1.401-.5-.2-.4-.401-.8-.3-1.2.1-.401.3-.801.8-1.201s1.3-.7 2.702-1.001c1-.2 2-.5 2.9-.8l-.4 1.1zm6.903-4.002c.1-.8.1-1.601-.1-2.502-.1-.9-.5-1.5-1-2-.7-.701-1.601-1.101-2.701-1.401-1.101-.2-2.703-.3-4.603-.3-1.2 0-2.301.1-3.303.3-1 .2-1.9.4-2.501.8-.9.5-1.6 1-2.2 1.6-.6.6-1 1.402-1.401 2.502l5.903.6c.399-.8.8-1.2 1.2-1.5.6-.3 1.402-.5 2.502-.5.8 0 1.4.1 1.6.5.2.4.3.9.2 1.6-.8.3-1.601.5-2.4.8-.8.3-2.301.5-4.803 1-2 .402-3.603 1.002-4.402 1.803-.9.8-1.401 1.8-1.601 3.1-.2 1.402.1 2.503 1 3.403.899.9 2.302 1.4 4.303 1.4 1.5 0 2.902-.2 4.002-.7.9-.3 1.8-1 2.8-1.7v1c.102.2.102.5.302 1h5.903c-.201-.7-.3-1.2-.3-1.7s.099-1.001.2-1.801l1.4-7.304zm-27.315 2.5c-.3 1.402-.7 2.503-1.4 3.103-.701.6-1.401 1-2.203 1-.8 0-1.4-.3-1.8-1-.4-.6-.5-1.6-.3-3.002.3-1.4.7-2.501 1.3-3.101.6-.6 1.3-.9 2.002-.9.799 0 1.5.3 1.9 1 .7.6.7 1.6.5 2.9zm2.6-14.607L74.865 7.95c-.501-.7-1.201-1.2-1.902-1.5-.7-.3-1.6-.5-2.601-.5-2.001 0-3.804.8-5.403 2.2-1.601 1.4-2.602 3.603-3.102 6.304-.4 2.502-.2 4.603.699 6.304.9 1.7 2.502 2.6 4.704 2.6 1.2 0 2.2-.3 3.202-.8.8-.3 1.599-1.1 2.7-2.1l-.4 2.5h5.904L82.668.047h-6.405zm-20.61 5.903c-1.3 0-2.501.3-3.402.7-1 .5-2 1.2-3.101 2.402l.5-2.701h-5.904l-2.901 16.609h6.403l1.4-7.905c.3-1.5.7-2.5 1.302-3.101.6-.6 1.2-.9 2-.9.7 0 1.2.2 1.502.7.3.4.3 1.2.2 2.2l-1.6 9.106h6.403l1.8-10.606c.4-2.201.2-3.802-.6-4.803-.9-1.1-2.301-1.7-4.002-1.7v-.001zM32.839 16.155c-.1.8-.4 1.4-.8 1.9-.3.5-.8.9-1.501 1.2-.7.302-1.4.502-2.001.502-.6 0-1.2-.1-1.401-.5-.2-.4-.4-.8-.3-1.2.1-.401.3-.801.8-1.201s1.3-.7 2.702-1.001c1-.2 2-.5 2.9-.8l-.4 1.1zm6.004-8.505c-.7-.7-1.601-1.1-2.702-1.4-1.1-.2-2.701-.3-4.602-.3-1.201 0-2.302.1-3.302.3-1.001.2-1.901.4-2.502.8-.9.5-1.6 1-2.201 1.6-.6.6-1 1.402-1.4 2.502l5.902.6c.3-.8.8-1.2 1.2-1.5.5-.3 1.402-.5 2.503-.5.8 0 1.4.1 1.6.5.2.4.3.9.2 1.6-.8.3-1.6.5-2.4.8-.801.3-2.302.5-4.803 1-2.002.402-3.602 1.002-4.403 1.803-.9.8-1.4 1.8-1.6 3.1-.201 1.402.1 2.503 1 3.403.9.9 2.3 1.4 4.302 1.4 1.5 0 2.902-.2 4.002-.7.9-.3 1.8-1 2.802-1.7v1c.1.2.1.5.3 1h6.004c-.2-.7-.3-1.2-.3-1.7s.1-1.001.2-1.801l1.3-7.304c.1-.8.1-1.601 0-2.502-.3-.9-.6-1.5-1.1-2V7.65zm-16.81-1.3h-7.904l-5.704 5.503L10.527.046H4.023L.02 22.959h6.503l.8-4.302 2.802-2.302 2.2 6.704h7.206l-4.503-10.806 7.004-5.903z" mask="url(#prefix__d)"/>
        </g>
        <path fill="#FFF" d="M111.077 32.618h-4.003v-7.004h4.003v1.2h-2.603v1.602h2.402v1.2h-2.402v1.801h2.603v1.201zm-15.81-3.902h.5c.5 0 .802-.1 1-.2.202-.1.302-.4.302-.8 0-.3-.1-.5-.301-.702-.2-.099-.6-.2-1.1-.2h-.5l.1 1.901-.001.001zm0 1.2v2.702h-1.5v-7.004h2c1 0 1.603.2 2.103.5.5.3.7.9.7 1.601 0 .4-.1.8-.301 1.1-.2.301-.5.5-1 .801 1.1 1.601 1.8 2.602 2 3.102h-1.6l-1.7-2.702c0-.099-.701-.099-.701-.099h-.001zm-11.605-.2c-.5-1.5-.8-2.402-.8-2.6-.1-.2-.1-.302-.1-.5-.1.398-.4 1.398-.901 3.1h1.8zm.899 2.902l-.5-1.7h-2.6l-.5 1.7h-1.602l2.502-7.104h1.8l2.502 7.104H84.56zm-13.708 0h-1.7l-1-3.702c-.1-.1-.1-.4-.2-.8-.101-.4-.101-.7-.101-.802 0 .2-.1.5-.1.801-.1.4-.1.7-.2.8l-1 3.703H64.85l-1.801-7.004h1.5l.9 3.802c.1.7.3 1.3.3 1.801 0-.2.1-.5.1-.8.1-.4.1-.7.2-.9l1.002-4.003h1.4l1.002 4.001c.1.201.1.5.1.8.1.301.1.701.1 1.001 0-.3.1-.5.1-1 .099-.399.099-.699.2-.899l.899-3.803h1.5l-1.5 7.004zm-16.508 0h-1.5v-5.804h-1.902v-1.2h5.303v1.2h-1.9v5.804h-.001zm-13.508 0h-1.501v-7.004h4.002v1.2h-2.601v1.802h2.4v1.2h-2.4l.1 2.802zm-14.71-3.502c0 .8.1 1.4.5 1.801.3.4.802.6 1.402.6 1.2 0 1.8-.8 1.8-2.4 0-1.603-.6-2.402-1.8-2.402-.6 0-1 .2-1.4.6-.4.4-.5 1-.5 1.8l-.001.001zm5.204 0c0 1.2-.3 2.001-.9 2.7-.6.601-1.401 1.002-2.502 1.002-1.1 0-1.9-.3-2.501-1-.5-.6-.9-1.502-.9-2.702s.3-2 .9-2.702c.5-.6 1.4-1 2.5-1s1.902.3 2.503 1c.4.6.9 1.501.9 2.702zm-14.508 1.501c0 .6-.2 1.2-.7 1.5-.5.3-1.1.5-1.901.5-.8 0-1.4-.1-2.001-.4v-1.4c.5.2.9.3 1.2.5.3.1.6.1.9.1.3 0 .5-.1.8-.2.2-.1.3-.3.3-.5 0-.1-.1-.3-.1-.3l-.3-.3c-.1-.1-.5-.3-.9-.5s-.8-.4-1-.602c-.2-.2-.4-.399-.5-.7-.1-.3-.2-.5-.2-.9 0-.6.2-1.1.6-1.5.4-.3 1-.5 1.8-.5.3 0 .7.1 1 .1.302.1.702.2 1.002.298l-.5 1.201c-.4-.1-.7-.3-1-.3-.3 0-.5-.1-.801-.1-.3 0-.5.1-.7.2-.1.1-.2.3-.2.5 0 .101 0 .301.1.301s.1.2.3.3c.1.1.5.3 1 .5.7.3 1.1.6 1.4 1.001.3.4.4.8.4 1.2v.001z" transform="translate(0 -1)"/>
    </g>
</svg>
