<svg xmlns="http://www.w3.org/2000/svg" width="102" height="100" viewBox="0 0 102 100">
    <g fill="none" fill-rule="evenodd">
        <path fill="#FF4340" d="M35.768 0L35.768 24.051 14.939 12.026 0 37.901 20.829 49.926 0 61.952 14.939 87.827 35.768 75.802 35.768 99.853 65.646 99.853 65.646 75.802 86.475 87.827 101.414 61.952 80.585 49.926 101.414 37.901 86.475 12.026 65.646 24.051 65.646 0z"/>
        <path fill="#FFF" d="M50.952 15.63c-2.015 0-3.648 1.634-3.648 3.65 0 2.014 1.633 3.648 3.648 3.648s3.65-1.634 3.65-3.649-1.635-3.649-3.65-3.649m0 8.232c-1.836 0-3.476-.713-4.56-1.83.708 1.83 2.488 3.138 4.56 3.138 2.072 0 3.853-1.308 4.56-3.138-1.083 1.117-2.724 1.83-4.56 1.83m.634 52.45c.05-.023.1-.046.152-.068.112-5.122.238-10.243.372-15.365-.044.02-.088.04-.132.058-.498.22-1.013.447-1.502.68-.201.095-.435.205-.682.331.13 5.013.254 10.027.362 15.04.272-.137.524-.258.742-.363.216-.104.448-.207.688-.314m-1.35 4.105c.041 2.012.078 4.025.111 6.038.01.534.03.956.59.956h.02c.56 0 .58-.422.589-.956.036-2.203.077-4.406.122-6.61-.49.186-.972.373-1.431.572m-1.315-54.733c.026 1.41.057 2.82.086 4.23 1.186-.239 2.487-.374 3.897-.402.026-1.276.054-2.552.078-3.828-.628.25-1.313.39-2.03.39-.718 0-1.403-.14-2.031-.39m3.324 30.299c-.704.388-1.45.732-2.228 1.09-.114.051-.227.104-.341.156-.072-2.716-.145-5.433-.216-8.15l-.031-1.19c-.105-3.986-.204-7.973-.297-11.96 1.26-.412 2.672-.535 3.639-.565-.159 6.873-.343 13.746-.526 20.619M64.95 37.32c-.207-.227-.512-.286-.798-.35-.305-.069-.562-.18-.812-.368-.227-.17-.422-.38-.651-.547.043.59.386 1.165.949 1.388.324.128.668.076.993.177.238.074.372.289.539.455.02-.275-.03-.547-.22-.755m-5.56-4.58c-.016-.28-.259-.496-.539-.48-.28.016-.497.259-.48.54.016.28.258.496.539.48.28-.016.496-.26.48-.54m3.232 2.772c-.51 1.198-5.516.855-7.453.058-.385-.158-.912-.569-1.358-1.084-3.621-.094-9.063.79-8.276 5.445.277 1.638 1.543 2.741 2.91 3.592l.11 4.319c-1.246-.553-2.465-1.159-3.57-1.988-2.513-1.884-3.961-4.81-3.499-7.975.988-6.758 8.448-7.855 14.147-7.416.911-.235 1.907-.289 2.734-.04 2.003.605 4.654 4.152 4.255 5.09m-9.604 33.09c-.071-.04-.144-.078-.216-.116-.022.864-.04 1.73-.062 2.596.261.148.518.303.765.473 1.046.723 2.037 1.97 1.307 3.276-.692 1.235-2.417 1.807-3.62 2.385-2.198 1.054-5.841 2.921-4.871 5.978 1.548-4.883 10.176-3.336 10.736-8.95.272-2.712-1.9-4.455-4.039-5.642m5.777-16.527c.232 1.947-.493 3.821-1.88 5.185-1.852 1.82-4.413 2.673-6.711 3.762-1.37.65-3.412 1.659-3.444 3.259-.04 1.097 1.428 1.844 2.286 2.304l.071 2.874c-1.376-.573-2.712-1.21-3.796-2.244-1.893-1.81-1.695-4.538.005-6.407 2.17-2.387 5.582-3.096 8.204-4.83 2.418-1.6 2.786-4.004.265-5.622-.168-.108-.34-.212-.512-.313l.104-3.967c.754.39 1.494.807 2.194 1.291 1.629 1.126 2.972 2.68 3.214 4.708"/>
    </g>
</svg>
