<svg xmlns="http://www.w3.org/2000/svg" xmlns:xlink="http://www.w3.org/1999/xlink" width="200" height="37" viewBox="0 0 200 37">
    <defs>
        <path id="prefix__a" d="M0.7 0.535L20.912 0.535 20.912 28.692 0.7 28.692z"/>
        <path id="prefix__c" d="M0.833 0.248L20.849 0.248 20.849 22.808 0.833 22.808z"/>
        <path id="prefix__e" d="M0 0.068L12.959 0.068 12.959 19.512 0 19.512z"/>
        <path id="prefix__g" d="M0.792 0.127L19.506 0.127 19.506 21.218 0.792 21.218z"/>
    </defs>
    <g fill="none" fill-rule="evenodd">
        <g transform="translate(.844 8.191)">
            <mask id="prefix__b" fill="#fff">
                <use xlink:href="#prefix__a"/>
            </mask>
            <path fill="#0F46A0" d="M16.852 28.692c1.338-.055 2.707-.111 4.06-.416-3.91-12.933-6.65-20.091-18.674-27.74C1.644 1.423 1.148 2.378.7 3.3 11.436 9.03 17.15 22.764 16.852 28.692" mask="url(#prefix__b)"/>
        </g>
        <path fill="#0F46A0" d="M23.031 36.15c1.49-.461 2.947-1.073 4.42-1.933C22.08 20.6 12.977 9.267 5.217 6.162c-.45.464-.873.937-1.24 1.388 9.656 5.235 16.042 15.205 19.053 28.6"/>
        <path fill="#0F46A0" d="M28.596 33.45c1.213-.976 2.427-1.945 3.395-3.256-8.43-14.25-13.608-20.826-23.823-26.43-.676.444-1.366.94-1.955 1.47C12.455 8.525 23.8 18.386 28.596 33.45M14.358 36.491c.647.131 1.309.237 1.988.292C15.116 25.67 7.559 17.42.938 13.09c-.237.712-.45 1.422-.589 2.133 3.296 2.822 10.654 10.29 14.009 21.268"/>
        <path fill="#0F46A0" d="M32.655 29.352c.886-1.319 1.69-2.604 2.258-4.232C29.217 14.123 23.408 8.488 14.399 1.198c-.837.184-1.671.384-2.474.692 4.647 3.332 17.947 16.641 20.73 27.462"/>
        <g transform="translate(15.19 .596)">
            <mask id="prefix__d" fill="#fff">
                <use xlink:href="#prefix__c"/>
            </mask>
            <path fill="#0F46A0" d="M20.264 22.808c.391-1.904.766-3.91.49-5.964C16.991 11.516 7.588 2.274 3.366.252 2.545.24 1.7.248.833.348c5.368 3.4 13.551 12.15 19.43 22.46" mask="url(#prefix__d)"/>
        </g>
        <path fill="#0F46A0" d="M35.461 14.374c-.384-1.4-.794-2.6-1.497-3.9-2.676-5.267-7.31-7.782-10.327-8.746-1.025-.306-1.937-.544-3.052-.716 5.041 2.731 11.728 9.573 14.876 13.362"/>
        <g transform="translate(0 16.63)">
            <mask id="prefix__f" fill="#fff">
                <use xlink:href="#prefix__e"/>
            </mask>
            <path fill="#0F46A0" d="M12.959 19.512c-1.118-.319-2.278-.696-3.486-1.441C6.745 11.029 3.323 5.894.005 2.784c-.016-.896 0-1.81.1-2.716C3.747 4.156 9.117 9.36 12.958 19.512" mask="url(#prefix__f)"/>
        </g>
        <path fill="#0F46A0" d="M4.867 31.185c.936.953 1.729 1.61 2.568 2.231-1.331-3.22-5.363-8.79-7.217-11.879.17 1.454.554 2.695 1.08 4.066.443 1.264 2.047 4.07 3.569 5.582M65.57 13.13l-4.37 1.364c-.587-1.62-1.832-2.429-3.734-2.429-2.03 0-3.044.615-3.044 1.844 0 .49.19.905.57 1.244.378.34 1.237.636 2.574.885 2.234.421 3.87.847 4.908 1.276 1.039.43 1.913 1.122 2.623 2.075.712.955 1.068 2.022 1.068 3.2 0 1.849-.763 3.448-2.288 4.797-1.524 1.348-3.785 2.023-6.781 2.023-2.247 0-4.16-.478-5.738-1.432-1.578-.955-2.618-2.37-3.121-4.25l4.754-1.004c.535 1.91 2.02 2.863 4.458 2.863 1.176 0 2.053-.212 2.628-.637.578-.425.868-.932.868-1.52 0-.6-.264-1.066-.788-1.395-.524-.33-1.535-.64-3.032-.93-2.79-.54-4.78-1.277-5.967-2.212-1.186-.934-1.78-2.3-1.78-4.1 0-1.818.708-3.351 2.125-4.6 1.418-1.249 3.342-1.874 5.77-1.874 4.301 0 7.067 1.604 8.297 4.812M77.603 12.23c-2.693 0-4.04 2.209-4.04 6.626 0 4.427 1.347 6.64 4.04 6.64 2.608 0 3.912-2.208 3.912-6.625 0-4.427-1.304-6.64-3.912-6.64m-.144 17.178c-2.953 0-5.238-1.035-6.854-3.103-1.616-2.069-2.423-4.573-2.423-7.51 0-2.988.819-5.481 2.455-7.48 1.638-1.999 3.97-2.998 7-2.998 3.059 0 5.367 1.067 6.925 3.2 1.556 2.134 2.335 4.575 2.335 7.323 0 2.968-.803 5.471-2.408 7.51-1.605 2.038-3.948 3.058-7.03 3.058M104.899 12.68L94.633 12.68 94.633 17.266 102.746 17.266 102.746 21.089 94.633 21.089 94.633 29.094 89.3 29.094 89.3 8.634 104.899 8.634zM123.106 8.633L123.106 12.68 117.677 12.68 117.677 29.094 112.471 29.094 112.471 12.68 107.01 12.68 107.01 8.633zM141.539 8.633L141.539 12.68 136.109 12.68 136.109 29.094 130.905 29.094 130.905 12.68 125.442 12.68 125.442 8.633zM159.105 12.53L148.664 12.53 148.664 16.727 156.872 16.727 156.872 20.579 148.664 20.579 148.664 25.047 159.105 25.047 159.105 29.093 143.443 29.093 143.443 8.633 159.105 8.633zM178.923 16.248l-5.381.314c-.076-2.887-1.282-4.331-3.623-4.331-2.683 0-4.024 2.223-4.024 6.67 0 2.568.365 4.309 1.094 5.223.73.915 1.75 1.372 3.059 1.372 2.124 0 3.423-1.289 3.895-3.867l4.98.284c-.32 2.45-1.299 4.31-2.932 5.584-1.633 1.275-3.633 1.912-6 1.912-2.902 0-5.261-.934-7.076-2.804-1.816-1.868-2.723-4.451-2.723-7.749 0-3.088.878-5.616 2.634-7.585 1.757-1.969 4.155-2.953 7.197-2.953 5.27 0 8.236 2.644 8.9 7.93"/>
        <g transform="translate(179.747 8.191)">
            <mask id="prefix__h" fill="#fff">
                <use xlink:href="#prefix__g"/>
            </mask>
            <path fill="#0F46A0" d="M10.213 4.04c-2.693 0-4.04 2.208-4.04 6.625 0 4.427 1.347 6.64 4.04 6.64 2.608 0 3.912-2.208 3.912-6.625 0-4.427-1.304-6.64-3.912-6.64m-.143 17.178c-2.954 0-5.24-1.035-6.854-3.103-1.617-2.069-2.424-4.573-2.424-7.51 0-2.988.818-5.481 2.456-7.48C4.885 1.127 7.218.128 10.246.128c3.06 0 5.368 1.067 6.926 3.2 1.556 2.134 2.335 4.575 2.335 7.323 0 2.968-.803 5.471-2.408 7.51-1.605 2.038-3.948 3.058-7.03 3.058" mask="url(#prefix__h)"/>
        </g>
    </g>
</svg>
